<svg width="1194" height="630" viewBox="0 0 1194 630" fill="none" xmlns="http://www.w3.org/2000/svg">
<path d="M187.063 426.874C184.121 419.898 193.539 414.446 198.123 420.472L276.973 537.73C285.938 551.063 276.384 569 260.318 569C252.247 569 244.961 564.165 241.825 556.729L187.063 426.874Z" fill="#EBA832"/>
<path d="M257.819 90.5801C252.539 75.6574 263.608 60 279.437 60C290.262 60 299.612 67.5687 301.866 78.1554L339.874 256.636C342.327 268.158 327.436 274.989 320.303 265.613C319.611 264.703 319.064 263.691 318.683 262.614L257.819 90.5801Z" fill="#0D9488"/>
<path d="M48.3053 329.149C33.5419 334.435 18 323.492 18 307.811C18 296.904 25.7683 287.544 36.4884 285.534L172.807 259.976C184.881 257.713 191.784 273.261 182.007 280.699C181.058 281.421 180.004 281.993 178.881 282.395L48.3053 329.149Z" fill="#7C9E5D"/>
<path d="M102.5 166.823C88.8017 159.47 86.0762 140.986 97.0693 129.993C105.13 121.933 117.854 120.926 127.082 127.619L258.03 222.597C268.349 230.082 261.812 246.388 249.18 244.671C247.729 244.474 246.324 244.018 245.033 243.325L102.5 166.823Z" fill="#459972"/>
<path d="M120.833 478.213C115.908 493.431 96.6393 498.069 85.3287 486.759C78.6125 480.042 77.1248 469.704 81.6747 461.367L143.944 347.262C148.861 338.252 162.605 342.766 161.223 352.937C161.149 353.481 161.027 354.017 160.858 354.539L120.833 478.213Z" fill="#B4A348"/>
<path d="M435 419.7C426.2 419.7 418.2 416.8 411 411C404 405 398.4 396.5 394.2 385.5C390 374.5 387.9 361.4 387.9 346.2C387.9 329.2 390.4 314.4 395.4 301.8C400.6 289.2 407.6 279.5 416.4 272.7C425.2 265.7 435 262.2 445.8 262.2C455 262.2 462.2 264 467.4 267.6C469.4 269 470.4 271.2 470.4 274.2L471 310.8C471 313.8 469.8 315.3 467.4 315.3C465.2 315.3 463.8 314 463.2 311.4C460.4 300.4 457.7 291.9 455.1 285.9C452.5 279.9 449.8 275.8 447 273.6C444.2 271.2 441.1 270 437.7 270C433.7 270 429.5 272.3 425.1 276.9C420.9 281.5 417.3 289 414.3 299.4C411.5 309.6 410.1 323.1 410.1 339.9C410.1 361.3 412.8 377.4 418.2 388.2C423.8 399 431 404.4 439.8 404.4C446.8 404.4 452.6 401.5 457.2 395.7C462 389.9 466.1 379.4 469.5 364.2C470.1 362 471.3 360.9 473.1 360.9C475.5 360.9 476.4 362.9 475.8 366.9C473.6 380.9 470.5 391.8 466.5 399.6C462.7 407.2 458.1 412.5 452.7 415.5C447.5 418.3 441.6 419.7 435 419.7ZM518.66 419.7C510.26 419.7 503.36 417.1 497.96 411.9C492.56 406.5 489.86 399.4 489.86 390.6C489.86 382 492.56 373.9 497.96 366.3C503.36 358.5 510.76 351.5 520.16 345.3C529.56 339.1 540.26 334.1 552.26 330.3C554.86 329.5 556.16 327.8 556.16 325.2V297.9C556.16 288.3 554.66 281.5 551.66 277.5C548.66 273.3 544.56 271.2 539.36 271.2C534.36 271.2 529.76 273.5 525.56 278.1C521.56 282.5 518.66 290 516.86 300.6C515.86 307 513.66 311.7 510.26 314.7C507.06 317.5 503.76 318.9 500.36 318.9C494.76 318.9 491.96 316.1 491.96 310.5C491.96 304.7 493.56 299 496.76 293.4C500.16 287.6 504.56 282.4 509.96 277.8C515.36 273 521.26 269.2 527.66 266.4C534.06 263.6 540.46 262.2 546.86 262.2C566.66 262.2 576.56 273.7 576.56 296.7V388.5C576.56 396.9 578.66 401.1 582.86 401.1C585.46 401.1 587.86 399.4 590.06 396C592.26 392.4 593.36 386.4 593.36 378C593.36 374.8 594.66 373.2 597.26 373.2C599.66 373.2 600.86 374.9 600.86 378.3C600.86 392.9 598.26 403.5 593.06 410.1C588.06 416.5 582.36 419.7 575.96 419.7C571.16 419.7 567.36 417.8 564.56 414C561.76 410 559.86 405.3 558.86 399.9C558.66 397.9 557.76 396.9 556.16 396.9C554.76 396.7 553.36 397.6 551.96 399.6C547.16 406.2 542.26 411.2 537.26 414.6C532.26 418 526.06 419.7 518.66 419.7ZM526.76 405.9C531.96 405.9 536.76 404.1 541.16 400.5C545.56 396.7 549.16 391.7 551.96 385.5C554.76 379.3 556.16 372.3 556.16 364.5V342.6C556.16 338.8 554.06 337.7 549.86 339.3C537.66 343.7 528.16 349.8 521.36 357.6C514.76 365.2 511.46 374.4 511.46 385.2C511.46 399 516.56 405.9 526.76 405.9ZM622.111 478.5C616.711 478.5 612.411 476.6 609.211 472.8C606.011 469.2 604.411 465 604.411 460.2C604.411 456.4 605.511 453.2 607.711 450.6C609.911 448 612.911 446.7 616.711 446.7C619.911 446.7 622.211 447.4 623.611 448.8C625.011 450.2 626.011 451.8 626.611 453.6C627.211 455.4 627.811 457 628.411 458.4C629.011 459.8 630.211 460.5 632.011 460.5C634.211 460.5 636.211 458.9 638.011 455.7C639.811 452.7 642.311 446.2 645.511 436.2C647.511 430.2 648.711 425 649.111 420.6C649.711 416.2 649.611 411.5 648.811 406.5C648.211 401.5 646.711 395.4 644.311 388.2L611.611 284.1C610.211 279.3 608.811 276.2 607.411 274.8C606.211 273.4 604.211 272.4 601.411 271.8L596.911 270.9C594.311 270.3 593.011 269 593.011 267C593.011 265 594.411 264 597.211 264H646.711C649.511 264 650.911 265 650.911 267C650.911 269.2 649.611 270.5 647.011 270.9L642.211 271.5C637.411 272.1 634.311 273.3 632.911 275.1C631.711 276.7 631.811 279.7 633.211 284.1L659.611 372C660.211 374 661.111 375 662.311 375C663.711 375 664.711 374 665.311 372L690.811 289.5C692.411 284.1 692.811 280.1 692.011 277.5C691.411 274.7 688.611 272.9 683.611 272.1L677.311 270.9C674.711 270.3 673.411 269 673.411 267C673.411 265 674.811 264 677.611 264H715.711C718.511 264 719.911 265.1 719.911 267.3C719.911 269.3 718.711 270.7 716.311 271.5L713.611 272.4C710.611 273.4 708.111 275.2 706.111 277.8C704.111 280.4 702.011 284.9 699.811 291.3L655.111 430.8C650.711 444.8 646.711 455.2 643.111 462C639.711 468.8 636.411 473.2 633.211 475.2C630.011 477.4 626.311 478.5 622.111 478.5ZM777.077 419.7C768.877 419.7 760.977 417.1 753.377 411.9C748.977 408.9 744.977 409.7 741.377 414.3C739.377 416.5 737.877 417.9 736.877 418.5C735.877 419.3 734.877 419.7 733.877 419.7C731.677 419.7 730.877 418.3 731.477 415.5C732.277 410.9 732.877 405 733.277 397.8C733.677 390.6 733.877 381 733.877 369V225C733.877 221.4 733.277 219 732.077 217.8C731.077 216.4 729.177 215.5 726.377 215.1L720.077 214.2C717.877 213.8 716.777 212.6 716.777 210.6C716.777 208.6 717.877 207.4 720.077 207C725.677 205.8 730.377 204.4 734.177 202.8C737.977 201.2 741.177 199.6 743.777 198C746.977 196 749.377 195 750.977 195C753.177 195 754.277 196.6 754.277 199.8V273.9C754.277 275.5 754.877 276.6 756.077 277.2C757.477 277.6 758.977 277 760.577 275.4C769.177 266.6 778.577 262.2 788.777 262.2C797.977 262.2 806.077 265.3 813.077 271.5C820.277 277.5 825.877 285.9 829.877 296.7C834.077 307.5 836.177 320.2 836.177 334.8C836.177 351.4 833.577 366.1 828.377 378.9C823.177 391.7 816.077 401.7 807.077 408.9C798.277 416.1 788.277 419.7 777.077 419.7ZM776.477 412.2C787.677 412.2 796.677 405.6 803.477 392.4C810.477 379.2 813.977 361.4 813.977 339C813.977 318.4 810.977 302.7 804.977 291.9C798.977 281.1 790.477 275.7 779.477 275.7C772.677 275.7 766.777 278.5 761.777 284.1C756.777 289.7 754.277 297.5 754.277 307.5V383.1C754.277 392.1 756.277 399.2 760.277 404.4C764.477 409.6 769.877 412.2 776.477 412.2ZM854.285 417C851.885 417 850.685 415.9 850.685 413.7C850.685 411.7 851.785 410.5 853.985 410.1L858.185 409.5C862.385 408.9 865.485 407.7 867.485 405.9C869.485 404.1 870.485 401.1 870.485 396.9V225C870.485 221.4 869.885 218.9 868.685 217.5C867.685 216.1 865.785 215.3 862.985 215.1L856.085 214.2C853.885 213.8 852.785 212.6 852.785 210.6C852.785 208.6 853.885 207.4 856.085 207C861.685 205.8 866.485 204.4 870.485 202.8C874.485 201.2 877.785 199.6 880.385 198C883.585 196 885.985 195 887.585 195C889.785 195 890.885 196.6 890.885 199.8V396.9C890.885 401.1 891.485 404.1 892.685 405.9C894.085 407.5 896.885 408.6 901.085 409.2L907.985 410.1C910.185 410.5 911.285 411.7 911.285 413.7C911.285 415.9 910.085 417 907.685 417H854.285ZM971.803 419.7C962.203 419.7 953.603 416.5 946.003 410.1C938.403 403.7 932.303 394.7 927.703 383.1C923.303 371.3 921.103 357.7 921.103 342.3C921.103 326.5 923.403 312.6 928.003 300.6C932.603 288.6 938.903 279.2 946.903 272.4C954.903 265.6 963.803 262.2 973.603 262.2C985.403 262.2 994.903 267.1 1002.1 276.9C1009.5 286.5 1013.2 302.2 1013.2 324C1013.2 330.6 1010.7 333.9 1005.7 333.9H948.703C944.703 333.9 942.703 336.2 942.703 340.8C942.703 362 945.803 377.9 952.003 388.5C958.203 399.1 966.103 404.4 975.703 404.4C983.303 404.4 989.503 401.7 994.303 396.3C999.103 390.9 1003 381.8 1006 369C1006.6 366.8 1007.9 365.7 1009.9 365.7C1012.3 365.7 1013.2 367.7 1012.6 371.7C1009.4 389.5 1004.3 402 997.303 409.2C990.303 416.2 981.803 419.7 971.803 419.7ZM947.803 326.4H978.103C987.703 326.4 992.503 321.4 992.503 311.4C992.503 298.4 990.903 288.2 987.703 280.8C984.503 273.4 979.703 269.7 973.303 269.7C965.503 269.7 958.903 274.2 953.503 283.2C948.303 292.2 944.903 305 943.303 321.6C942.903 324.8 944.403 326.4 947.803 326.4ZM1060.14 419.7C1055.54 419.7 1050.64 419.1 1045.44 417.9C1040.24 416.9 1036.04 415.6 1032.84 414C1031.04 413 1030.14 411.3 1030.14 408.9L1029.24 375.3C1029.24 371.9 1030.54 370.2 1033.14 370.2C1035.34 370.2 1036.84 371.8 1037.64 375C1041.04 389.2 1045.14 398.9 1049.94 404.1C1054.94 409.3 1060.94 411.9 1067.94 411.9C1073.74 411.9 1078.54 409.7 1082.34 405.3C1086.14 400.7 1088.04 394.4 1088.04 386.4C1088.04 378.4 1085.84 371.3 1081.44 365.1C1077.04 358.9 1069.64 352.1 1059.24 344.7C1048.84 337.7 1041.24 330.7 1036.44 323.7C1031.64 316.5 1029.24 308.7 1029.24 300.3C1029.24 288.9 1033.24 279.7 1041.24 272.7C1049.24 265.7 1059.84 262.2 1073.04 262.2C1077.04 262.2 1080.94 262.7 1084.74 263.7C1088.54 264.5 1091.94 265.9 1094.94 267.9C1096.74 269.1 1097.64 270.7 1097.64 272.7L1098.24 305.7C1098.24 308.7 1097.04 310.2 1094.64 310.2C1093.24 310.2 1092.24 309.8 1091.64 309C1091.04 308 1090.54 306.8 1090.14 305.4C1086.14 292.4 1082.14 283.4 1078.14 278.4C1074.14 273.2 1069.24 270.6 1063.44 270.6C1058.24 270.6 1053.94 272.4 1050.54 276C1047.14 279.6 1045.44 284.1 1045.44 289.5C1045.44 296.5 1047.54 302.6 1051.74 307.8C1055.94 313 1063.54 319.4 1074.54 327C1084.54 334.2 1092.04 342 1097.04 350.4C1102.24 358.6 1104.84 367.6 1104.84 377.4C1104.84 390.2 1100.74 400.5 1092.54 408.3C1084.34 415.9 1073.54 419.7 1060.14 419.7Z" fill="white"/>
</svg>
