<svg width="630" height="630" viewBox="0 0 630 630" fill="none" xmlns="http://www.w3.org/2000/svg">
<g clip-path="url(#clip0_3_8)">
<path d="M187.063 426.874C184.121 419.898 193.539 414.446 198.123 420.472L276.973 537.73C285.938 551.063 276.384 569 260.318 569C252.247 569 244.961 564.165 241.825 556.729L187.063 426.874Z" fill="#EBA832"/>
<path d="M257.819 90.5801C252.539 75.6574 263.608 60 279.437 60C290.262 60 299.612 67.5687 301.866 78.1554L339.874 256.636C342.327 268.158 327.436 274.989 320.303 265.613C319.611 264.703 319.064 263.691 318.683 262.614L257.819 90.5801Z" fill="#0D9488"/>
<path d="M48.3053 329.149C33.5419 334.435 18 323.492 18 307.811C18 296.904 25.7683 287.544 36.4884 285.534L172.807 259.976C184.881 257.713 191.784 273.261 182.007 280.699C181.058 281.421 180.004 281.993 178.881 282.395L48.3053 329.149Z" fill="#7C9E5D"/>
<path d="M102.5 166.823C88.8017 159.47 86.0762 140.986 97.0693 129.993C105.13 121.933 117.854 120.926 127.082 127.619L258.03 222.597C268.349 230.082 261.812 246.388 249.18 244.671C247.729 244.474 246.324 244.018 245.033 243.325L102.5 166.823Z" fill="#459972"/>
<path d="M120.833 478.213C115.908 493.431 96.6393 498.069 85.3287 486.759C78.6125 480.042 77.1248 469.704 81.6747 461.367L143.944 347.262C148.861 338.252 162.605 342.766 161.223 352.937C161.149 353.481 161.027 354.017 160.858 354.539L120.833 478.213Z" fill="#B4A348"/>
</g>
<defs>
<clipPath id="clip0_3_8">
<rect width="630" height="630" fill="white"/>
</clipPath>
</defs>
</svg>
