<?xml version="1.0" standalone="no"?>
<!DOCTYPE svg PUBLIC "-//W3C//DTD SVG 20010904//EN"
 "http://www.w3.org/TR/2001/REC-SVG-20010904/DTD/svg10.dtd">
<svg version="1.0" xmlns="http://www.w3.org/2000/svg"
 width="321.000000pt" height="321.000000pt" viewBox="0 0 321.000000 321.000000"
 preserveAspectRatio="xMidYMid meet">
<metadata>
Created by potrace 1.11, written by Peter Selinger 2001-2013
</metadata>
<g transform="translate(0.000000,321.000000) scale(0.100000,-0.100000)"
fill="#000000" stroke="none">
<path d="M1448 2672 c-10 -2 -18 -8 -18 -14 0 -6 -6 -6 -15 2 -10 9 -15 9 -15
1 0 -6 -5 -11 -11 -11 -5 0 -7 5 -4 10 3 6 1 10 -4 10 -6 0 -11 -8 -12 -17 0
-12 -2 -13 -6 -5 -4 10 -8 10 -19 1 -11 -9 -14 -9 -14 1 0 9 -4 9 -12 3 -13
-10 -19 -11 -72 -16 -13 -1 -22 -6 -18 -11 3 -5 -2 -7 -11 -3 -9 3 -23 -1 -32
-9 -11 -12 -15 -12 -15 -2 0 10 -2 10 -9 -1 -5 -7 -14 -10 -20 -7 -7 5 -10 2
-9 -6 2 -7 -5 -12 -14 -12 -11 1 -18 -5 -18 -15 0 -14 -2 -14 -10 -1 -8 12
-10 12 -16 -3 -5 -13 -10 -15 -19 -7 -10 8 -13 6 -11 -7 1 -12 -5 -17 -18 -15
-14 3 -17 -1 -12 -14 4 -10 4 -15 0 -11 -4 4 -13 -2 -21 -13 -8 -11 -20 -17
-28 -14 -8 4 -15 1 -15 -6 0 -6 -4 -8 -10 -5 -6 4 -7 -1 -3 -11 4 -12 3 -15
-5 -10 -8 4 -12 1 -12 -10 0 -10 -3 -14 -7 -11 -3 4 -13 -2 -21 -14 -9 -13
-20 -18 -31 -14 -12 5 -13 3 -4 -6 9 -9 5 -18 -17 -39 -16 -15 -26 -31 -23
-34 4 -3 1 -6 -5 -6 -17 0 -42 -43 -47 -79 -3 -30 -28 -65 -37 -55 -3 3 -3 -7
-1 -21 4 -16 1 -25 -7 -25 -10 0 -10 -3 -1 -14 8 -10 9 -16 1 -21 -5 -3 -10
-17 -10 -30 0 -13 -5 -27 -10 -30 -8 -5 -7 -11 1 -21 9 -11 8 -14 -2 -14 -11
0 -11 -2 1 -10 13 -9 13 -12 -2 -24 -18 -13 -26 -32 -10 -22 12 7 9 -38 -3
-46 -6 -5 -6 -8 2 -8 8 0 9 -9 3 -28 -4 -16 -4 -36 2 -45 5 -10 5 -17 0 -17
-4 0 -5 -25 -2 -55 4 -36 2 -55 -4 -55 -6 0 -4 -5 4 -10 8 -5 10 -10 4 -10 -8
0 -9 -11 -4 -37 5 -20 7 -41 4 -45 -3 -4 0 -8 7 -8 8 0 8 -4 -1 -15 -11 -14
-7 -19 12 -16 4 0 3 -10 -2 -24 -8 -20 -7 -23 8 -18 15 6 15 4 4 -9 -11 -14
-10 -18 5 -27 10 -6 13 -11 7 -11 -7 0 -11 -8 -10 -17 0 -11 -5 -17 -13 -15
-12 3 -12 1 0 -14 9 -12 10 -15 1 -10 -13 8 -42 -15 -42 -32 0 -6 -6 -13 -12
-15 -10 -4 -9 -6 1 -6 11 -1 11 -4 0 -17 -10 -13 -10 -17 2 -25 12 -8 12 -10
-1 -20 -11 -8 -12 -12 -2 -16 6 -2 12 -11 12 -18 0 -7 6 -16 13 -18 10 -4 9
-6 0 -6 -7 -1 -13 -6 -13 -12 0 -5 4 -8 9 -5 5 3 12 -1 15 -10 3 -8 2 -12 -4
-9 -6 3 -7 -1 -4 -9 3 -9 11 -16 16 -16 6 0 8 -9 5 -20 -3 -11 0 -18 6 -17 6
1 11 -2 12 -8 0 -5 4 -16 8 -22 5 -8 4 -13 -3 -13 -6 0 -8 -5 -5 -10 4 -6 11
-7 17 -4 6 4 6 -2 -1 -15 -7 -11 -8 -21 -3 -21 5 0 9 -10 8 -23 -1 -12 3 -25
8 -29 8 -6 12 -18 18 -65 1 -7 5 -13 10 -13 5 0 7 -4 4 -9 -3 -4 3 -19 14 -31
11 -12 17 -26 15 -30 -3 -4 2 -11 11 -14 8 -3 12 -11 8 -17 -4 -7 -3 -10 2 -7
9 6 36 -17 29 -24 -2 -2 5 -5 15 -6 45 -4 50 -6 50 -18 0 -7 8 -11 20 -9 11 2
20 0 20 -5 0 -6 10 -6 25 0 13 5 26 6 29 2 2 -4 19 -9 37 -10 18 -1 39 -7 46
-13 9 -8 14 -7 19 5 3 9 10 13 15 10 6 -3 17 0 26 8 12 9 15 9 9 1 -9 -16 6
-17 22 -1 9 9 12 9 12 -3 0 -12 2 -12 10 1 9 13 10 13 10 0 0 -13 1 -13 10 0
5 8 10 10 10 5 0 -6 9 -11 19 -11 11 0 17 4 15 8 -5 7 18 12 39 9 4 0 7 4 7
10 0 8 5 7 15 -1 13 -11 14 -10 10 3 -4 10 1 18 16 22 24 8 46 26 45 37 -1 3
3 10 8 15 5 5 6 3 2 -4 -4 -7 -3 -13 2 -13 5 0 14 11 20 25 6 14 16 25 22 25
5 0 10 7 10 16 0 9 5 12 13 8 7 -5 6 0 -3 11 -9 11 -10 16 -2 11 7 -4 12 -2
12 4 0 6 5 8 12 4 6 -4 8 -3 5 4 -10 15 3 43 16 35 6 -4 8 0 4 10 -3 10 -2 17
3 17 6 0 10 7 10 15 0 8 6 15 13 15 8 0 7 4 -3 10 -9 6 -10 10 -3 10 6 0 10 9
8 20 -3 13 0 18 7 14 7 -5 9 -2 5 9 -4 12 -2 14 11 10 9 -3 14 -3 10 2 -4 4
-3 14 3 21 18 22 72 -21 66 -51 -2 -15 0 -22 7 -19 7 3 12 -6 13 -18 1 -13 7
-24 13 -26 8 -3 7 -8 -1 -18 -9 -11 -8 -14 5 -14 10 0 14 -4 11 -10 -3 -5 -1
-10 4 -10 6 0 11 -6 11 -14 0 -7 7 -19 15 -26 8 -7 12 -17 8 -23 -4 -6 0 -8
11 -4 14 6 16 3 11 -13 -4 -11 -3 -20 2 -19 23 4 32 -2 26 -18 -4 -11 -3 -14
5 -9 7 4 12 2 12 -3 0 -6 7 -11 15 -11 8 0 15 -5 15 -11 0 -5 5 -7 12 -3 7 5
9 2 6 -8 -4 -8 0 -15 8 -15 7 0 10 5 7 11 -4 6 3 2 15 -8 12 -11 22 -15 22
-11 0 5 7 0 15 -11 8 -10 15 -14 15 -7 0 13 40 5 40 -9 0 -5 8 -5 18 -1 9 5
24 8 32 7 8 -1 23 -2 33 -3 10 0 16 -5 13 -9 -2 -4 4 -8 14 -8 10 0 16 5 13
10 -4 6 1 6 13 1 10 -4 30 -7 44 -5 14 1 36 2 50 3 14 0 28 5 33 11 5 7 10 6
17 -4 6 -9 13 -11 18 -5 4 6 17 16 30 23 18 10 22 10 23 0 0 -7 5 -2 10 12 8
19 12 21 18 11 7 -11 10 -9 16 8 3 11 13 21 21 21 8 0 14 7 14 15 0 8 5 15 11
15 5 0 8 4 4 9 -3 6 2 14 11 19 9 5 15 11 14 13 -3 8 14 44 24 51 7 5 6 8 -3
8 -10 0 -11 3 -2 13 6 8 8 17 4 20 -3 4 -2 7 4 7 5 0 9 13 8 30 -1 16 2 27 8
23 5 -3 6 3 2 16 -5 15 -2 21 10 21 9 0 13 5 10 10 -4 6 -12 7 -18 3 -7 -4 -6
0 2 10 7 9 10 17 5 17 -4 0 1 7 12 16 10 8 14 13 7 10 -6 -4 -14 -2 -18 4 -3
5 0 10 9 10 8 0 17 14 21 33 4 17 11 34 16 37 4 3 10 19 13 35 2 17 5 30 6 30
2 0 4 10 5 23 1 12 -3 22 -9 22 -6 0 -4 5 4 10 9 6 11 10 3 10 -7 0 -10 7 -6
17 4 11 3 14 -5 9 -7 -4 -14 3 -18 19 -3 14 -11 25 -17 25 -6 0 -7 3 -4 7 4 3
1 13 -6 21 -10 13 -9 15 3 8 8 -4 7 -1 -3 7 -16 13 -16 15 -1 21 13 5 14 9 4
21 -9 11 -9 15 -1 15 7 0 9 5 6 10 -3 6 0 10 7 10 9 0 9 3 -2 10 -13 9 -13 10
0 10 12 0 13 2 1 9 -11 7 -11 9 0 14 12 5 12 6 0 6 -11 1 -11 4 -1 16 10 12
10 15 0 15 -9 0 -9 4 -3 13 6 6 10 24 9 39 -1 14 2 24 6 22 4 -3 8 0 8 5 0 6
-3 11 -7 11 -5 0 -8 15 -8 34 0 19 3 32 8 29 4 -2 7 1 7 6 0 6 -4 11 -8 11 -4
0 -5 27 -2 59 3 33 2 57 -3 54 -4 -2 -6 7 -3 21 3 16 0 26 -7 26 -8 0 -7 3 2
9 11 7 11 9 0 13 -12 4 -12 8 -1 20 10 13 10 19 -3 32 -9 9 -11 16 -5 16 7 0
8 6 1 19 -6 10 -7 21 -4 25 3 3 0 6 -8 6 -11 0 -11 2 1 10 12 7 12 10 1 10 -8
0 -11 6 -7 15 3 9 0 18 -7 21 -7 2 -13 14 -14 25 -1 12 -9 29 -17 38 -9 10
-13 21 -9 24 3 4 -2 14 -13 23 -10 8 -13 13 -6 9 19 -10 14 2 -10 25 -12 11
-18 20 -13 20 5 0 0 7 -11 16 -10 8 -13 12 -5 8 9 -5 12 -3 7 4 -4 7 -14 12
-22 12 -8 0 -12 5 -9 10 3 6 1 10 -4 10 -6 0 -11 10 -11 23 0 18 -2 19 -10 7
-8 -13 -10 -12 -10 3 0 10 -4 15 -10 12 -5 -3 -10 1 -10 10 0 9 -4 14 -8 11
-5 -3 -15 4 -22 15 -8 10 -20 19 -27 19 -7 0 -13 5 -13 10 0 6 -7 10 -15 10
-8 0 -15 7 -15 17 0 9 -3 13 -6 10 -4 -4 -15 3 -25 15 -11 12 -19 16 -19 8 0
-7 -9 -1 -20 13 -12 15 -27 24 -35 20 -8 -3 -15 0 -15 7 0 6 -4 9 -9 5 -6 -3
-14 3 -20 12 -6 10 -11 12 -11 6 0 -7 -5 -13 -11 -13 -5 0 -7 5 -3 12 5 8 2 9
-9 5 -9 -3 -19 -2 -22 4 -4 5 -14 8 -23 7 -9 -2 -16 2 -15 7 1 6 -7 12 -18 12
-12 1 -17 -3 -13 -10 3 -7 -1 -4 -9 5 -8 10 -16 15 -20 12 -3 -3 -20 2 -39 12
-32 16 -32 16 -18 -1 14 -17 14 -17 -7 -6 -13 6 -23 8 -23 4 0 -4 -5 -1 -10 7
-9 13 -11 13 -20 0 -8 -12 -12 -13 -19 -2 -4 8 -12 14 -16 14 -4 0 -12 -6 -16
-14 -7 -10 -9 -10 -9 2 0 13 -1 13 -10 0 -5 -8 -10 -10 -10 -3 0 6 -8 10 -17
8 -10 -2 -22 -4 -26 -4 -5 -1 -5 -7 -2 -13 4 -7 -1 -4 -10 7 -14 17 -17 18
-25 5 -8 -12 -12 -13 -19 -2 -4 8 -12 14 -16 14 -4 0 -12 -6 -16 -14 -7 -10
-9 -10 -9 2 0 13 -1 13 -10 0 -5 -8 -10 -10 -10 -3 0 6 -8 10 -17 8 -10 -2
-22 -4 -26 -4 -5 -1 -5 -7 -2 -13 4 -7 -1 -4 -10 7 -14 17 -17 18 -25 5 -7
-10 -13 -11 -17 -5 -5 6 -16 9 -25 7z m-648 -382 c-6 -11 -13 -20 -16 -20 -2
0 0 9 6 20 6 11 13 20 16 20 2 0 0 -9 -6 -20z m1437 -436 c14 -4 20 -11 16
-20 -3 -9 0 -14 8 -12 7 2 14 -4 14 -12 1 -8 7 -14 14 -12 8 2 11 -3 8 -13 -4
-8 -2 -15 4 -15 6 0 8 -4 4 -9 -3 -5 2 -17 11 -25 9 -9 11 -16 4 -16 -6 0 -8
-5 -5 -10 4 -6 12 -7 18 -3 7 4 6 0 -2 -10 -7 -9 -9 -17 -3 -17 5 0 8 -13 7
-30 -1 -16 2 -30 7 -30 6 0 5 -7 -2 -15 -9 -11 -9 -15 -1 -15 9 0 9 -5 0 -21
-8 -15 -8 -19 0 -15 6 4 11 0 11 -8 0 -9 -6 -16 -12 -16 -10 0 -10 -3 0 -9 11
-7 9 -13 -10 -31 -12 -13 -17 -19 -9 -15 9 5 12 4 8 -2 -3 -5 -27 -9 -52 -9
-25 1 -45 -3 -45 -9 0 -5 -5 -3 -10 5 -5 8 -10 10 -10 4 0 -8 -11 -9 -35 -4
-24 5 -35 4 -35 -4 0 -6 -5 -4 -10 4 -7 11 -10 11 -10 2 0 -10 -5 -10 -22 -1
-17 9 -23 9 -26 -1 -3 -9 -6 -9 -13 1 -5 9 -9 10 -9 3 0 -8 -11 -9 -35 -4 -24
5 -35 4 -35 -4 0 -6 -5 -4 -10 4 -5 8 -10 10 -10 3 0 -6 -9 -9 -20 -6 -12 3
-20 0 -20 -8 0 -8 -6 -5 -15 7 -11 14 -14 15 -9 2 4 -12 1 -16 -13 -14 -10 2
-24 -1 -30 -7 -7 -5 -13 -6 -13 -2 0 4 -8 1 -17 -6 -9 -8 -14 -9 -10 -2 5 8 1
8 -18 0 -14 -7 -25 -16 -25 -22 0 -5 -5 -3 -10 5 -6 10 -10 11 -10 3 0 -7 -5
-13 -11 -13 -5 0 -7 6 -4 13 4 6 -1 3 -10 -8 -17 -21 -45 -26 -57 -10 -5 6
-12 4 -18 -5 -6 -9 -13 -11 -17 -5 -12 16 -47 19 -37 3 6 -10 4 -10 -9 1 -9 7
-26 11 -36 8 -11 -3 -22 1 -25 8 -3 8 -13 11 -27 8 -14 -4 -20 -2 -16 4 5 7
-1 9 -15 5 -14 -3 -19 -2 -14 6 5 9 0 9 -19 2 -17 -7 -24 -7 -20 0 3 6 -2 10
-12 10 -11 0 -25 6 -32 13 -11 10 -12 9 -6 -3 8 -13 7 -13 -8 -1 -14 11 -17
11 -17 0 0 -8 -6 -5 -15 7 -8 10 -15 14 -15 8 0 -6 -19 -8 -55 -4 -36 4 -55 2
-55 -4 0 -6 -5 -4 -10 4 -9 13 -10 13 -10 0 0 -9 -3 -11 -8 -5 -9 12 -82 13
-82 1 0 -5 -7 -3 -15 4 -12 10 -15 10 -15 -1 0 -11 -2 -11 -10 1 -7 11 -10 11
-10 2 0 -7 -5 -10 -11 -7 -17 11 -59 13 -59 2 0 -5 -5 -5 -13 2 -8 6 -17 8
-20 4 -4 -3 -7 -1 -7 6 0 7 -5 9 -10 6 -6 -4 -9 -1 -8 7 2 7 -3 12 -11 10 -12
-3 -12 0 -2 12 9 11 9 16 0 21 -8 6 -7 10 2 16 11 7 12 11 1 17 -14 9 -5 45 9
36 5 -3 6 2 3 10 -7 18 31 40 57 33 10 -3 19 0 19 6 0 6 7 4 16 -5 13 -13 23
-14 42 -7 21 8 23 7 18 -8 -6 -14 -5 -15 5 -6 10 10 16 10 28 0 12 -10 13 -9
7 1 -7 11 -4 12 10 4 22 -11 47 -5 38 10 -3 5 3 4 14 -3 12 -7 18 -18 14 -24
-3 -5 2 -4 11 4 13 10 17 10 17 1 0 -10 4 -10 16 1 13 10 17 10 25 -2 7 -11 9
-11 9 0 0 7 6 11 15 7 8 -3 15 0 15 7 0 8 4 6 10 -3 5 -8 10 -10 10 -4 0 12
29 12 49 -1 10 -5 12 -4 7 3 -6 11 6 16 27 13 4 0 7 5 8 11 0 7 4 4 9 -7 l9
-20 1 20 c1 19 1 19 11 2 8 -14 14 -16 25 -6 10 8 14 8 14 0 0 -6 8 -11 18
-11 10 0 22 -3 26 -7 16 -16 75 -30 85 -20 8 8 11 7 11 -2 0 -11 3 -11 17 0
13 11 17 11 20 2 3 -7 9 -13 14 -13 6 0 7 4 4 10 -3 6 1 7 9 4 9 -4 16 -1 16
6 0 10 3 10 15 0 12 -10 15 -9 16 6 0 18 1 18 9 -1 5 -11 9 -14 9 -7 1 10 6
10 21 2 15 -8 20 -8 20 2 0 9 3 9 10 -2 7 -11 10 -11 10 -2 0 9 5 10 19 3 14
-8 22 -7 31 4 9 11 17 12 32 4 14 -7 18 -7 14 -1 -4 6 1 10 11 10 28 -1 47 6
60 22 11 13 12 12 7 -5 -5 -17 -3 -17 14 4 10 13 24 21 30 17 7 -4 10 1 7 12
-2 11 3 19 10 19 8 0 12 -5 8 -11 -3 -6 8 3 25 19 16 17 28 33 26 36 -2 4 3
10 12 13 9 3 12 11 8 18 -5 8 -2 9 9 5 9 -3 19 -1 23 5 4 7 3 8 -4 4 -20 -12
-13 9 8 27 12 10 18 23 14 29 -4 7 -3 8 5 4 6 -4 14 0 17 8 7 17 17 19 51 10z"/>
<path d="M976 2503 c-6 -14 -5 -15 5 -6 7 7 10 15 7 18 -3 3 -9 -2 -12 -12z"/>
<path d="M423 1994 c-5 -13 -7 -13 -14 -2 -7 11 -9 11 -9 -1 0 -8 -6 -11 -16
-7 -8 3 -12 2 -9 -4 3 -6 1 -10 -5 -10 -6 0 -9 -4 -5 -9 3 -5 -4 -13 -16 -16
-11 -4 -18 -13 -15 -20 2 -7 -2 -22 -10 -34 -11 -14 -11 -21 -3 -21 8 0 8 -4
-1 -15 -10 -12 -10 -15 1 -15 11 0 11 -2 -1 -10 -13 -9 -13 -10 0 -10 13 0 13
-1 0 -10 -12 -8 -12 -10 -1 -10 11 0 11 -3 1 -15 -10 -12 -10 -15 1 -15 11 0
11 -2 -1 -10 -12 -8 -12 -10 -1 -10 10 0 11 -3 2 -14 -9 -11 -9 -15 1 -19 11
-4 11 -6 0 -6 -10 -1 -10 -6 -2 -21 8 -15 8 -20 -1 -20 -7 0 -9 -3 -6 -7 4 -3
2 -12 -5 -20 -9 -11 -7 -12 8 -7 15 5 14 2 -5 -14 -16 -13 -20 -22 -12 -26 7
-5 3 -15 -14 -30 -14 -13 -21 -27 -17 -32 4 -4 0 -3 -9 4 -14 11 -17 10 -15
-5 0 -11 -5 -17 -13 -15 -12 3 -12 0 -1 -13 11 -13 10 -15 -4 -9 -11 4 -16 1
-16 -13 0 -10 -5 -24 -12 -31 -9 -9 -9 -12 2 -12 13 0 13 -2 0 -10 -11 -7 -11
-10 -2 -10 7 0 10 -4 7 -10 -3 -5 -1 -10 5 -10 6 0 10 -8 8 -17 -2 -10 2 -17
8 -16 8 1 10 -6 6 -19 -3 -14 -1 -19 6 -14 7 4 12 2 12 -4 0 -6 4 -8 10 -5 6
3 7 -1 4 -9 -3 -9 -1 -16 4 -16 6 0 14 -9 17 -20 4 -11 11 -17 17 -14 6 4 5
-3 -2 -16 -7 -13 -8 -20 -2 -16 6 3 13 2 17 -4 3 -5 1 -10 -6 -10 -8 0 -8 -4
1 -15 10 -12 10 -15 -1 -15 -9 -1 -8 -4 4 -11 14 -8 16 -14 6 -25 -9 -11 -8
-14 2 -14 11 0 11 -2 -1 -10 -12 -8 -12 -10 -1 -10 11 0 11 -3 1 -15 -10 -12
-10 -15 1 -15 10 0 10 -3 1 -12 -7 -7 -8 -17 -2 -29 7 -12 6 -20 0 -24 -8 -5
-7 -12 2 -23 11 -13 11 -15 -2 -7 -12 6 -13 5 -2 -6 6 -7 12 -21 12 -31 0 -10
5 -18 10 -18 6 0 10 -5 10 -11 0 -17 24 -36 39 -31 9 3 12 0 9 -9 -4 -10 1
-15 13 -15 11 0 19 4 19 9 0 5 6 4 14 -2 11 -9 15 -9 19 1 4 8 6 9 6 1 1 -14
38 -5 63 16 19 17 25 61 7 61 -5 0 -7 5 -4 10 3 6 -1 10 -9 10 -9 0 -13 6 -10
14 3 8 -2 22 -10 33 -9 10 -16 22 -15 27 0 5 -5 12 -12 16 -12 8 -19 70 -8 70
4 0 3 16 -1 35 -5 22 -4 35 2 35 6 0 5 7 -2 15 -11 13 -10 14 4 9 12 -5 15 -2
9 12 -4 12 -3 15 6 9 10 -6 11 -3 2 14 -8 15 -9 21 -1 21 6 0 9 4 5 9 -3 5 -1
12 5 16 7 4 6 14 -2 28 -10 19 -9 20 3 10 12 -10 15 -8 15 8 0 10 -3 19 -7 19
-3 0 -6 10 -6 23 0 23 -8 50 -24 81 -6 10 -6 16 -1 12 5 -3 9 1 9 9 0 8 -4 12
-8 10 -4 -3 -9 2 -13 10 -3 8 -1 15 3 15 5 0 5 15 1 34 -5 22 -4 38 4 46 7 7
7 13 1 18 -12 8 -14 73 -3 65 5 -2 8 1 8 6 0 6 -3 11 -7 11 -5 0 -8 18 -8 39
0 27 3 36 11 30 7 -6 10 2 9 25 -2 25 2 33 12 29 8 -3 13 2 13 12 0 10 8 24
18 32 9 8 12 12 6 9 -6 -3 -11 1 -11 9 0 8 4 12 9 9 14 -9 30 7 20 19 -5 7 -8
20 -7 30 2 11 -3 17 -16 17 -11 0 -18 4 -15 9 3 5 -10 11 -29 13 -19 2 -35 0
-35 -4 0 -4 -5 -8 -11 -8 -5 0 -7 5 -4 10 3 6 4 10 0 10 -3 0 -8 -7 -12 -16z"/>
<path d="M2741 1991 c-6 -9 -9 -10 -5 -2 4 9 2 12 -7 9 -8 -3 -13 -11 -11 -17
1 -6 -2 -10 -7 -8 -5 1 -9 -2 -9 -7 0 -5 -6 -13 -14 -17 -9 -6 -10 -9 -1 -9 7
0 10 -7 6 -17 -4 -11 -3 -14 5 -9 8 5 12 0 12 -13 0 -12 7 -21 16 -21 8 0 13
-4 10 -9 -3 -4 1 -16 8 -27 8 -10 12 -24 9 -31 -3 -7 1 -13 8 -13 11 0 11 -3
-1 -10 -12 -8 -12 -10 -1 -10 11 0 11 -3 1 -15 -6 -8 -9 -18 -6 -24 4 -5 -1
-16 -9 -24 -11 -12 -12 -17 -2 -20 9 -4 8 -8 -3 -17 -12 -9 -12 -13 -2 -17 10
-4 10 -8 0 -21 -10 -12 -10 -14 0 -8 6 4 12 2 12 -3 0 -6 -5 -11 -11 -11 -8 0
-8 -4 0 -13 8 -10 7 -17 -2 -27 -8 -9 -9 -11 0 -6 6 3 14 2 18 -4 3 -5 1 -10
-5 -10 -6 0 -8 -5 -5 -10 4 -6 11 -8 16 -5 5 3 6 -1 3 -9 -4 -10 -1 -16 7 -16
11 0 11 -3 -1 -10 -11 -7 -11 -10 -2 -10 7 0 10 -4 7 -10 -3 -5 -1 -10 6 -10
8 0 8 -4 -1 -15 -10 -12 -10 -15 0 -15 8 0 10 -3 7 -6 -3 -4 -2 -15 4 -25 7
-14 6 -19 -3 -19 -9 0 -9 -3 2 -10 8 -5 11 -10 5 -10 -5 0 -10 -13 -10 -30 0
-16 5 -30 10 -30 6 0 3 -5 -5 -10 -9 -6 -10 -10 -3 -10 8 0 9 -9 3 -30 -6 -21
-5 -30 3 -30 8 0 7 -3 -2 -9 -11 -7 -11 -9 0 -14 11 -4 9 -9 -6 -22 -11 -9
-14 -14 -7 -10 7 4 12 0 12 -9 0 -8 -6 -17 -12 -19 -9 -4 -10 -8 -2 -14 5 -4
10 -18 10 -30 0 -17 -3 -19 -14 -11 -10 9 -12 8 -10 -3 2 -8 8 -17 13 -21 6
-5 3 -8 -7 -8 -11 0 -16 -6 -13 -19 2 -14 -1 -18 -10 -15 -10 4 -13 0 -10 -15
2 -12 0 -21 -6 -21 -5 0 -9 -7 -9 -15 0 -8 -5 -15 -11 -15 -8 0 -9 -4 0 -13 6
-8 8 -17 4 -21 -4 -3 -8 -13 -9 -21 -2 -14 3 -17 22 -14 4 0 10 -4 13 -10 10
-15 61 -22 62 -8 0 7 4 3 9 -8 7 -16 9 -17 9 -3 1 12 7 15 23 10 13 -3 19 -1
15 5 -4 6 4 9 19 7 22 -2 23 0 12 14 -8 9 -8 13 -1 9 12 -7 36 47 26 57 -4 3
-1 6 6 6 8 0 11 7 7 15 -3 8 0 15 7 15 8 0 6 4 -3 10 -13 9 -13 10 0 10 13 0
13 1 0 10 -10 6 -11 10 -3 10 9 0 10 7 3 25 -7 18 -6 25 3 25 8 0 7 4 -3 10
-9 6 -11 10 -3 10 7 0 10 7 7 15 -4 9 0 15 7 15 11 0 11 3 -1 10 -13 9 -13 11
0 21 11 8 12 12 3 16 -10 3 -10 10 -2 25 8 16 8 19 -1 13 -9 -6 -9 -3 -1 12 6
11 7 23 4 27 -3 3 -2 6 4 6 6 0 14 7 17 16 4 9 2 13 -5 8 -6 -3 -3 5 6 20 10
14 13 26 9 26 -5 0 -1 5 8 10 9 6 15 19 13 30 -2 11 1 23 7 26 7 5 8 2 3 -6
-5 -9 -4 -11 3 -6 8 5 9 13 3 24 -4 9 -6 23 -4 30 3 6 0 12 -7 12 -6 0 -10 6
-9 13 3 27 -1 38 -13 31 -9 -5 -9 -2 1 9 9 11 10 17 2 17 -6 0 -11 11 -11 24
0 14 -4 27 -9 30 -10 7 -9 25 2 44 5 6 4 12 -1 12 -11 0 -10 40 2 59 6 10 5
12 -2 7 -11 -6 -19 37 -13 68 1 5 -3 12 -10 16 -8 6 -8 13 0 29 7 12 8 21 4
20 -18 -3 -27 2 -16 9 27 17 -53 127 -101 136 -59 12 -74 12 -85 -3z"/>
</g>
</svg>
