<?xml version="1.0" encoding="UTF-8"?>
<svg version="1.1" xmlns="http://www.w3.org/2000/svg" width="960" height="490">
<path d="M0 0 C8.25 0 16.5 0 25 0 C25 16.17 25 32.34 25 49 C47.77 49 70.54 49 94 49 C94 32.83 94 16.66 94 0 C102.58 0 111.16 0 120 0 C120.33 19.14 120.66 38.28 121 58 C133.02531665 45.17347651 133.02531665 45.17347651 144.97265625 32.27734375 C148.88182956 28.03821714 152.82290722 23.82893383 156.76074219 19.61645508 C161.31227151 14.74444021 165.84105945 9.85188677 170.35742188 4.94726562 C173.91047127 1.08952873 173.91047127 1.08952873 175 0 C177.59359322 -0.08851529 180.16039691 -0.11525945 182.75390625 -0.09765625 C183.52935287 -0.0962413 184.3047995 -0.09482635 185.10374451 -0.09336853 C187.59003494 -0.08775345 190.0762366 -0.07519846 192.5625 -0.0625 C194.24413933 -0.05748694 195.92578006 -0.0529237 197.60742188 -0.04882812 C201.73831566 -0.03777913 205.86914276 -0.02050445 210 0 C208.57567584 2.97816718 207.22096735 4.97931682 204.8125 7.25 C202.36686407 9.62061642 200.07456434 12.02501621 197.875 14.625 C194.59487452 18.43944456 191.07475263 21.96563435 187.5 25.5 C183.44666147 29.5078018 179.562126 33.55544131 175.875 37.90625 C172.84706905 41.28743956 169.58652756 44.43386542 166.3581543 47.62231445 C162.69423727 51.25824039 159.27102579 55.00207959 156 59 C157.24678477 63.57154416 159.76709939 65.95360127 163.08203125 69.125 C165.58186362 71.56882798 167.83496187 74.18649168 170.1171875 76.83203125 C172.2157532 79.24842951 174.354397 81.62529024 176.5 84 C179.18983431 86.98062721 181.86310364 89.97245233 184.5 93 C187.09901752 95.98228278 189.72814662 98.93506943 192.375 101.875 C193.12652344 102.71160156 193.87804687 103.54820312 194.65234375 104.41015625 C196.25653454 106.17983761 197.87442258 107.93717365 199.50390625 109.68359375 C200.30699219 110.55113281 201.11007812 111.41867187 201.9375 112.3125 C202.66839844 113.09238281 203.39929688 113.87226563 204.15234375 114.67578125 C206.0472736 117.05946679 206.93709979 119.17039125 208 122 C203.19902607 122.27439619 198.4027134 122.47258193 193.59570312 122.60424805 C191.96566211 122.65917334 190.33615326 122.73395431 188.70800781 122.82983398 C175.2303255 123.6029403 175.2303255 123.6029403 169.79394531 119.69580078 C167.25348954 116.91574129 165.11905541 114.1089013 163 111 C161.51333773 109.1558345 160.01503642 107.32092717 158.5 105.5 C157.7678125 104.5925 157.035625 103.685 156.28125 102.75 C153.13805742 98.96094593 149.79841405 95.36730648 146.46484375 91.74609375 C144.07292703 89.08124834 141.80745116 86.35168175 139.5625 83.5625 C135.79092572 78.88332763 131.82256632 74.44342786 127.71704102 70.05883789 C125.28610704 67.453535 123.14802483 64.86403311 121 62 C120.67 81.8 120.34 101.6 120 122 C111.42 122 102.84 122 94 122 C94 105.17 94 88.34 94 71 C71.56 71 49.12 71 26 71 C25.67 87.83 25.34 104.66 25 122 C16.75 122 8.5 122 0 122 C0 81.74 0 41.48 0 0 Z " fill="#056EE0" transform="translate(119,248)"/>
<path d="M0 0 C5.03614214 3.28890915 7.9519757 7.57703788 10.4375 13 C11.84314567 19.74709922 11.69049253 26.0224504 8.0625 32 C4.84818678 35.82656335 1.53860502 39.42800055 -3.45703125 40.58203125 C-5.875 40.75 -5.875 40.75 -8.08984375 40.671875 C-9.00443359 40.83429688 -9.00443359 40.83429688 -9.9375 41 C-10.63604153 42.3169138 -11.2979243 43.65346179 -11.9375 45 C-13.66717195 47.49639038 -15.56015325 49.8632956 -17.4375 52.25 C-17.93636719 52.8996875 -18.43523437 53.549375 -18.94921875 54.21875 C-20.22934193 55.85236564 -21.57855599 57.43134241 -22.9375 59 C-23.5975 59 -24.2575 59 -24.9375 59 C-25.17210937 59.52722656 -25.40671875 60.05445313 -25.6484375 60.59765625 C-27.34087332 63.75174118 -29.44790143 66.55999212 -31.5625 69.4375 C-40.76157744 80.87505689 -40.76157744 80.87505689 -45.9375 94 C-44.61017046 95.67145202 -43.27523782 97.33686649 -41.9375 99 C-38.78226364 105.24473863 -37.3860643 111.04725329 -36.9375 118 C-34.54205476 118.27720876 -32.15022966 118.52225728 -29.75 118.75 C-28.73969727 118.87181641 -28.73969727 118.87181641 -27.70898438 118.99609375 C-23.9912902 119.32252543 -22.25317967 119.21661701 -19.13671875 117.078125 C-18.41097656 116.39234375 -17.68523437 115.7065625 -16.9375 115 C-11.05731742 113.03993914 -4.33479157 113.17184473 1.5 115.1875 C6.43578296 118.67866356 10.03356455 122.23355188 12.0625 128 C12.83891897 134.17347765 12.61822797 139.74434359 9.46875 145.2109375 C6.03889635 149.57447354 1.5833811 153.01296625 -3.9375 154 C-9.80230324 154.38457726 -13.72222102 154.03434413 -18.9375 151 C-22.7127501 147.52958376 -25.49212263 144.3361321 -27.125 139.4375 C-30.05502187 133.88056197 -35.47596046 131.78580854 -40.9375 129 C-41.80761719 130.03060547 -41.80761719 130.03060547 -42.6953125 131.08203125 C-43.86707031 132.43361328 -43.86707031 132.43361328 -45.0625 133.8125 C-45.82820312 134.70582031 -46.59390625 135.59914063 -47.3828125 136.51953125 C-50.86682596 139.9023272 -54.00914104 142 -58.9375 142 C-58.4469924 159.15085185 -56.64692571 175.37271822 -52.20776367 191.96411133 C-51.46446263 194.74850038 -50.9375 197.10040083 -50.9375 200 C-50.380625 200.20625 -49.82375 200.4125 -49.25 200.625 C-45.12549931 203.07740582 -42.6521873 206.50255994 -40.625 210.75 C-39.14615508 217.74090327 -39.05065644 223.86536848 -42.66796875 230.1796875 C-46.00404582 234.96310878 -49.29567725 238.21965536 -54.9375 240 C-61.5466315 240.63692506 -68.45527763 241.17693133 -73.9375 237 C-79.48535383 231.54657772 -83.19503917 226.78432104 -83.3125 218.75 C-83.21673403 213.3134396 -82.07626205 208.51393873 -78.9375 204 C-77.9475 203.67 -76.9575 203.34 -75.9375 203 C-75.9375 202.34 -75.9375 201.68 -75.9375 201 C-75.2775 200.67 -74.6175 200.34 -73.9375 200 C-69.88605613 187.36902795 -70.70360338 172.88608783 -70.375 159.75 C-70.33168965 158.11848134 -70.28807196 156.48697081 -70.24414062 154.85546875 C-70.13839024 150.90373043 -70.03677648 146.95190604 -69.9375 143 C-71.03763428 142.85755859 -72.13776855 142.71511719 -73.27124023 142.56835938 C-79.52579545 141.59875129 -84.71013986 138.60239819 -88.83984375 133.77734375 C-90.35361133 131.56035896 -91.70903008 129.38638583 -92.9375 127 C-93.31648437 126.26523438 -93.69546875 125.53046875 -94.0859375 124.7734375 C-95.28113172 120.88083247 -95.15064493 117.23199606 -95.0625 113.1875 C-95.05347656 112.39923828 -95.04445313 111.61097656 -95.03515625 110.79882812 C-95.01172504 108.86575334 -94.97585838 106.9328362 -94.9375 105 C-101.93000085 101.06410132 -109.0192087 98.07213493 -116.625 95.5625 C-117.40786377 95.29163574 -118.19072754 95.02077148 -118.99731445 94.74169922 C-124.68886823 92.93707478 -129.09531766 93.04891437 -134.9375 94 C-141.52015899 94.43997207 -147.17411781 94.61623981 -152.9375 91 C-157.82688766 85.87293378 -160.5114643 80.76331539 -161.3125 73.6875 C-160.65654918 67.23731692 -158.4328366 62.00216893 -153.625 57.5625 C-147.88099072 53.18147597 -142.30125184 52.54153953 -135.296875 53.46484375 C-130.03178214 54.65907839 -126.32988524 58.04464237 -123 62.17578125 C-121.73055332 64.35530919 -121.29879927 66.35433661 -120.75 68.8125 C-117.78663079 79.64580057 -104.80140529 86.42091111 -95.66455078 92.03198242 C-93.11759954 93.45955687 -90.8045937 94.43145451 -87.9375 95 C-86.00576225 94.06257739 -86.00576225 94.06257739 -84.5625 92.3125 C-77.96683041 86.04661389 -71.81149913 85.67256637 -62.890625 85.89453125 C-61.91609375 85.92933594 -60.9415625 85.96414062 -59.9375 86 C-58.6175 86 -57.2975 86 -55.9375 86 C-48.58796606 72.95162959 -41.65620201 59.85593468 -35.82128906 46.0546875 C-35.07531941 44.3204111 -34.27411405 42.61004848 -33.4609375 40.90625 C-30.58649242 34.414306 -30.96033638 28.97949838 -31.57421875 22.0703125 C-32.17514938 14.83301749 -30.96453053 10.55071404 -26.6875 4.6875 C-19.70973744 -2.13167704 -9.1900465 -3.15204268 0 0 Z " fill="#1476E2" transform="translate(830.9375,121)"/>
<path d="M0 0 C2.2038799 0.00560313 4.40776357 0.00986984 6.61164856 0.01286316 C12.38036623 0.02425542 18.14885322 0.05367379 23.91748047 0.0869751 C29.81670004 0.11779769 35.71595729 0.13139444 41.61523438 0.14648438 C53.16678373 0.17854928 64.71810212 0.23127085 76.26953125 0.29296875 C76.26953125 8.21296875 76.26953125 16.13296875 76.26953125 24.29296875 C73.54429199 24.30231445 70.81905273 24.31166016 68.01123047 24.32128906 C59.00255777 24.35507073 49.99411387 24.41062638 40.98562431 24.47687149 C35.52425823 24.51636444 30.06305382 24.54854411 24.6015625 24.56396484 C19.32994668 24.57911928 14.0587753 24.6135437 8.78735733 24.66127777 C6.77719106 24.67610401 4.76696134 24.68401048 2.75674057 24.6848526 C-0.06125405 24.68722023 -2.87801843 24.71428367 -5.69580078 24.74707031 C-6.52514633 24.74203995 -7.35449188 24.73700958 -8.20896912 24.73182678 C-13.47200019 24.82643869 -16.59806538 25.73042496 -20.73046875 29.29296875 C-21.78446592 32.45496026 -21.96492788 34.90757061 -22.04296875 38.23046875 C-22.08035156 39.27074219 -22.11773437 40.31101562 -22.15625 41.3828125 C-21.6303057 44.97756939 -20.52427224 46.05896262 -17.73046875 48.29296875 C-14.95142859 49.68248883 -12.66902396 49.43306661 -9.55932617 49.45068359 C-8.26004684 49.46094574 -6.96076752 49.47120789 -5.62211609 49.48178101 C-4.92453375 49.48521893 -4.22695141 49.48865685 -3.50823021 49.49219894 C-1.31588677 49.50401431 0.87626199 49.52348121 3.06852722 49.5453186 C9.3033481 49.60679237 15.53815574 49.66064799 21.77319336 49.69433594 C25.58824679 49.71550136 29.40295561 49.75098975 33.21780968 49.79509354 C34.66117935 49.80910018 36.10461013 49.81794063 37.5480442 49.82114792 C50.31382483 49.85247269 63.30581698 50.41091031 73.26953125 59.29296875 C80.33696655 66.84661581 80.61268375 75.20471249 80.58203125 85.10546875 C80.59814453 86.13478516 80.61425781 87.16410156 80.63085938 88.22460938 C80.63663361 97.35368205 79.30822287 106.11182196 73.26953125 113.29296875 C64.04409928 121.35553114 55.3306305 122.45417665 43.38696289 122.40649414 C42.42033722 122.40664017 41.45371155 122.40678619 40.45779419 122.40693665 C37.28173532 122.4062433 34.10573605 122.39847803 30.9296875 122.390625 C28.72008801 122.38875877 26.51048811 122.38733583 24.30088806 122.38633728 C18.49932706 122.38252827 12.6977913 122.37271182 6.89624023 122.3616333 C0.97054384 122.35138439 -4.95515666 122.34683221 -10.88085938 122.34179688 C-22.49740867 122.33108807 -34.11393266 122.31350439 -45.73046875 122.29296875 C-45.73046875 114.70296875 -45.73046875 107.11296875 -45.73046875 99.29296875 C-41.74919922 99.26323975 -41.74919922 99.26323975 -37.6875 99.23291016 C-28.90241221 99.16590028 -20.11744126 99.0882623 -11.33248901 99.00544167 C-6.00798124 98.95556917 -0.68349245 98.90923841 4.64111328 98.87109375 C9.78294765 98.83412659 14.92461972 98.7877358 20.0663147 98.73490524 C22.02459862 98.71642194 23.98291726 98.70129178 25.94125366 98.68962479 C28.69147234 98.67265825 31.44132423 98.64359867 34.19140625 98.61181641 C34.99485977 98.60965622 35.79831329 98.60749603 36.62611389 98.60527039 C41.80017146 98.52925542 46.32839382 97.8851805 51.26953125 96.29296875 C54.07370543 91.61934511 53.83843519 85.61755403 53.26953125 80.29296875 C51.96543548 76.99841102 51.20580459 75.75912647 48.04602051 74.18591309 C44.9020336 73.17477815 42.33420949 73.02800885 39.03320312 73.00585938 C37.17471741 72.98573792 37.17471741 72.98573792 35.27868652 72.96520996 C34.62099777 72.96264694 33.96330902 72.96008392 33.28569031 72.95744324 C31.20643191 72.94909081 29.12759964 72.92852202 27.04846191 72.90490723 C22.62221601 72.85680661 18.1959261 72.82387631 13.76953125 72.79296875 C8.66218466 72.75705663 3.55504303 72.71462174 -1.55210876 72.6570282 C-3.57736313 72.63729703 -5.60271754 72.62884201 -7.62805176 72.62072754 C-32.16380097 72.36038262 -32.16380097 72.36038262 -41.73046875 64.29296875 C-48.62807749 56.41928331 -49.07570705 46.9227939 -49.04296875 36.91796875 C-49.05908203 35.94085938 -49.07519531 34.96375 -49.09179688 33.95703125 C-49.09775994 24.98857756 -47.65109308 16.3337112 -41.73046875 9.29296875 C-30.2138284 -1.81431234 -14.8618226 -0.11134235 0 0 Z " fill="#FF751B" transform="translate(382.73046875,247.70703125)"/>
<path d="M0 0 C25.6471875 -0.12375 25.6471875 -0.12375 51.8125 -0.25 C57.19409424 -0.28641602 62.57568848 -0.32283203 68.12036133 -0.36035156 C74.73571777 -0.37841797 74.73571777 -0.37841797 77.84111023 -0.3817749 C79.99149392 -0.3878826 82.14186466 -0.40187862 84.29216003 -0.42230225 C87.56586183 -0.45181846 90.83873282 -0.45561622 94.11254883 -0.45410156 C95.05664769 -0.468494 96.00074656 -0.48288643 96.97345448 -0.497715 C104.9439574 -0.44874315 112.93462396 1.40748647 119.4375 6.25 C128.09719073 15.54332663 128.37340053 27.6043872 128.37060547 39.69165039 C128.37497103 41.79851684 128.41137013 43.90326887 128.44921875 46.00976562 C128.53733231 56.58261693 127.45685435 67.60612872 119.7734375 75.6015625 C112.79085188 81.10765424 104.80861793 82.15656601 96.18041992 82.11352539 C95.02352661 82.11374443 95.02352661 82.11374443 93.84326172 82.1139679 C91.305635 82.11327378 88.76808258 82.10550492 86.23046875 82.09765625 C84.46641581 82.09579029 82.70236236 82.09436723 80.93830872 82.09336853 C76.3039506 82.08955738 71.66962401 82.07973909 67.03527832 82.06866455 C61.47020367 82.0566179 55.90511845 82.05204151 50.34003448 82.04621124 C41.89333442 82.03652657 33.44670349 82.0173602 25 82 C25 95.2 25 108.4 25 122 C16.75 122 8.5 122 0 122 C0 81.74 0 41.48 0 0 Z M25 24 C25 36.21 25 48.42 25 61 C36.91501787 61.08732686 36.91501787 61.08732686 48.83007812 61.14648438 C53.69321572 61.16438469 58.55618309 61.18551043 63.41918945 61.22631836 C67.34197284 61.25902862 71.26457354 61.27687748 75.18748283 61.28463173 C76.68054007 61.29015439 78.17358785 61.30093873 79.66656685 61.31719017 C81.76563882 61.33912048 83.8639658 61.34196056 85.96313477 61.34057617 C87.75183739 61.35056892 87.75183739 61.35056892 89.57667542 61.36076355 C93.71876615 60.92425357 96.31210915 59.9291797 100 58 C102.2654445 54.60183325 102.25668408 53.3668758 102.265625 49.37890625 C102.26820313 48.27869141 102.27078125 47.17847656 102.2734375 46.04492188 C102.26183594 44.32112305 102.26183594 44.32112305 102.25 42.5625 C102.25773438 41.41716797 102.26546875 40.27183594 102.2734375 39.09179688 C102.26957031 37.43954102 102.26957031 37.43954102 102.265625 35.75390625 C102.26224121 34.24292358 102.26224121 34.24292358 102.25878906 32.70141602 C101.98951682 29.8905694 101.61226574 28.30765906 100 26 C96.43751598 23.62087085 93.23243604 23.75804101 89.02832031 23.77294922 C87.98868889 23.77251114 87.98868889 23.77251114 86.92805481 23.77206421 C84.64461608 23.77345392 82.3615065 23.78899794 80.078125 23.8046875 C78.49200621 23.80841891 76.90588511 23.81126528 75.31976318 23.81326294 C71.15059007 23.82088932 66.98155689 23.84052922 62.81243896 23.8626709 C57.80724479 23.88675325 52.80200375 23.89591505 47.79676819 23.90757751 C40.19774821 23.92695425 32.59903513 23.9652836 25 24 Z " fill="#FF7217" transform="translate(591,248)"/>
<path d="M0 0 C37.29 0 74.58 0 113 0 C113 7.92 113 15.84 113 24 C98.48 24 83.96 24 69 24 C69 56.34 69 88.68 69 122 C60.75 122 52.5 122 44 122 C44 89.66 44 57.32 44 24 C29.48 24 14.96 24 0 24 C0 16.08 0 8.16 0 0 Z " fill="#FF7216" transform="translate(468,248)"/>
<path d="M0 0 C8.58 0 17.16 0 26 0 C26.33 19.14 26.66 38.28 27 58 C39.02531665 45.17347651 39.02531665 45.17347651 50.97265625 32.27734375 C54.88182956 28.03821714 58.82290722 23.82893383 62.76074219 19.61645508 C67.31227151 14.74444021 71.84105945 9.85188677 76.35742188 4.94726562 C79.91047127 1.08952873 79.91047127 1.08952873 81 0 C83.59359322 -0.08851529 86.16039691 -0.11525945 88.75390625 -0.09765625 C89.52935287 -0.0962413 90.3047995 -0.09482635 91.10374451 -0.09336853 C93.59003494 -0.08775345 96.0762366 -0.07519846 98.5625 -0.0625 C100.24413933 -0.05748694 101.92578006 -0.0529237 103.60742188 -0.04882812 C107.73831566 -0.03777913 111.86914276 -0.02050445 116 0 C114.57567584 2.97816718 113.22096735 4.97931682 110.8125 7.25 C108.36686407 9.62061642 106.07456434 12.02501621 103.875 14.625 C100.59487452 18.43944456 97.07475263 21.96563435 93.5 25.5 C89.44666147 29.5078018 85.562126 33.55544131 81.875 37.90625 C78.84706905 41.28743956 75.58652756 44.43386542 72.3581543 47.62231445 C68.69423727 51.25824039 65.27102579 55.00207959 62 59 C63.24678477 63.57154416 65.76709939 65.95360127 69.08203125 69.125 C71.58186362 71.56882798 73.83496187 74.18649168 76.1171875 76.83203125 C78.2157532 79.24842951 80.354397 81.62529024 82.5 84 C85.18983431 86.98062721 87.86310364 89.97245233 90.5 93 C93.09901752 95.98228278 95.72814662 98.93506943 98.375 101.875 C99.12652344 102.71160156 99.87804687 103.54820312 100.65234375 104.41015625 C102.25653454 106.17983761 103.87442258 107.93717365 105.50390625 109.68359375 C106.30699219 110.55113281 107.11007812 111.41867187 107.9375 112.3125 C108.66839844 113.09238281 109.39929688 113.87226563 110.15234375 114.67578125 C112.0472736 117.05946679 112.93709979 119.17039125 114 122 C109.19902607 122.27439619 104.4027134 122.47258193 99.59570312 122.60424805 C97.96566211 122.65917334 96.33615326 122.73395431 94.70800781 122.82983398 C81.2303255 123.6029403 81.2303255 123.6029403 75.79394531 119.69580078 C73.25348954 116.91574129 71.11905541 114.1089013 69 111 C67.51333773 109.1558345 66.01503642 107.32092717 64.5 105.5 C63.7678125 104.5925 63.035625 103.685 62.28125 102.75 C59.13805742 98.96094593 55.79841405 95.36730648 52.46484375 91.74609375 C50.07292703 89.08124834 47.80745116 86.35168175 45.5625 83.5625 C41.79092572 78.88332763 37.82256632 74.44342786 33.71704102 70.05883789 C31.28610704 67.453535 29.14802483 64.86403311 27 62 C26.67 81.8 26.34 101.6 26 122 C17.42 122 8.84 122 0 122 C0 105.17 0 88.34 0 71 C-22.44 71 -44.88 71 -68 71 C-68 70.67 -68 70.34 -68 70 C-44.9 70 -21.8 70 2 70 C2 86.83 2 103.66 2 121 C9.26 121 16.52 121 24 121 C24 81.4 24 41.8 24 1 C16.74 1 9.48 1 2 1 C2 17.17 2 33.34 2 50 C-21.76 50 -45.52 50 -70 50 C-70 49.67 -70 49.34 -70 49 C-46.9 49 -23.8 49 0 49 C0 32.83 0 16.66 0 0 Z " fill="#1577E2" transform="translate(213,248)"/>
<path d="M0 0 C8.58 0 17.16 0 26 0 C26.33 19.14 26.66 38.28 27 58 C28.98 56.35 30.96 54.7 33 53 C31.33333333 56.33333333 29.66666667 59.66666667 28 63 C27.67 62.67 27.34 62.34 27 62 C26.67 81.8 26.34 101.6 26 122 C17.42 122 8.84 122 0 122 C0 105.17 0 88.34 0 71 C-22.44 71 -44.88 71 -68 71 C-68 70.67 -68 70.34 -68 70 C-44.9 70 -21.8 70 2 70 C2 86.83 2 103.66 2 121 C9.26 121 16.52 121 24 121 C24 81.4 24 41.8 24 1 C16.74 1 9.48 1 2 1 C2 17.17 2 33.34 2 50 C-21.76 50 -45.52 50 -70 50 C-70 49.67 -70 49.34 -70 49 C-46.9 49 -23.8 49 0 49 C0 32.83 0 16.66 0 0 Z " fill="#8DBCF0" transform="translate(213,248)"/>
<path d="M0 0 C8.25 0 16.5 0 25 0 C25 16.17 25 32.34 25 49 C24.01 49.495 24.01 49.495 23 50 C23 34.16 23 18.32 23 2 C15.74 2 8.48 2 1 2 C1 41.27 1 80.54 1 121 C8.26 121 15.52 121 23 121 C23 103.84 23 86.68 23 69 C47.09 69 71.18 69 96 69 C96 69.33 96 69.66 96 70 C72.57 70 49.14 70 25 70 C25 87.16 25 104.32 25 122 C16.75 122 8.5 122 0 122 C0 81.74 0 41.48 0 0 Z " fill="#3388E6" transform="translate(119,248)"/>
<path d="M0 0 C2.56857882 2.25288757 3.61591902 4.12598103 4.625 7.375 C4.86476563 8.12523437 5.10453125 8.87546875 5.3515625 9.6484375 C7.2911235 16.68226715 7.1861028 23.58636876 7.18530273 30.8293457 C7.18749651 33.05894865 7.2057006 35.28806207 7.22460938 37.51757812 C7.22754246 38.94010248 7.22952782 40.36262918 7.23046875 41.78515625 C7.23457764 43.07301025 7.23868652 44.36086426 7.24291992 45.68774414 C7.01758629 48.76020785 6.63027526 50.43767735 5 53 C4.98018066 51.9262915 4.96036133 50.85258301 4.93994141 49.74633789 C4.86331556 45.72609771 4.77469068 41.70619288 4.68261719 37.6862793 C4.64456106 35.95327421 4.60966942 34.22019639 4.578125 32.48706055 C4.531962 29.98199638 4.47405822 27.47742293 4.4140625 24.97265625 C4.40251129 24.20977798 4.39096008 23.44689972 4.37905884 22.66090393 C4.20270763 16.09233543 3.7056689 9.55850335 0 4 C0 2.68 0 1.36 0 0 Z " fill="#FF9551" transform="translate(712,257)"/>
<path d="M0 0 C-0.86625 0.53625 -1.7325 1.0725 -2.625 1.625 C-5.13316622 3.27729908 -7.16874986 5.08673014 -9.25 7.25 C-10.1575 8.1575 -11.065 9.065 -12 10 C-12.66 10 -13.32 10 -14 10 C-14 15.94 -14 21.88 -14 28 C-16.91321337 25.08678663 -16.91526734 22.86427316 -17.3125 18.8125 C-16.76309853 12.10980212 -14.48428429 6.94795731 -9.375 2.5 C-5.90669646 -0.22617745 -4.34835774 -1.30450732 0 0 Z " fill="#67A6EC" transform="translate(687,176)"/>
<path d="M0 0 C0.33 0 0.66 0 1 0 C0.70918389 8.98621791 -0.18029678 14.08935146 -6.625 20.6875 C-10.13147912 24.71185911 -10.38855297 29.87114579 -11 35 C-11.33 35 -11.66 35 -12 35 C-12.42923435 28.23955894 -11.84768426 22.76509214 -8 17 C-7.01 16.67 -6.02 16.34 -5 16 C-5 15.34 -5 14.68 -5 14 C-4.34 13.67 -3.68 13.34 -3 13 C-2.37330801 10.83532539 -1.84572626 8.64135476 -1.375 6.4375 C-1.11460937 5.23996094 -0.85421875 4.04242188 -0.5859375 2.80859375 C-0.39257812 1.88175781 -0.19921875 0.95492188 0 0 Z " fill="#71ACED" transform="translate(760,308)"/>
<path d="M0 0 C0.66 0.33 1.32 0.66 2 1 C-0.21659761 3.3041126 -2.4503173 5.5908834 -4.6875 7.875 C-5.62625977 8.85146484 -5.62625977 8.85146484 -6.58398438 9.84765625 C-9.8281834 13.14281128 -12.40544013 15.75252868 -17 17 C-12.17645439 11.03403569 -6.75929081 6.05429288 -1 1 C-0.67 0.67 -0.34 0.34 0 0 Z " fill="#358AE6" transform="translate(295,249)"/>
<path d="M0 0 C5.85272256 0.45020943 10.08220119 3.03839227 15 6 C14.25 10.75 14.25 10.75 12 13 C12 11.02 12 9.04 12 7 C8.04 5.02 4.08 3.04 0 1 C0 0.67 0 0.34 0 0 Z " fill="#8EBDF1" transform="translate(724,219)"/>
<path d="M0 0 C2.5938187 2.27323437 3.68311469 4.23402458 4.75 7.5 C5.01296875 8.2734375 5.2759375 9.046875 5.546875 9.84375 C6 12 6 12 5 15 C2.62886517 10.03715966 0.56825653 5.54050113 0 0 Z " fill="#FFB788" transform="translate(712,257)"/>
<path d="M0 0 C4.75 0.875 4.75 0.875 7 2 C7.6328125 4.06640625 7.6328125 4.06640625 8.125 6.5625 C8.29257812 7.38878906 8.46015625 8.21507812 8.6328125 9.06640625 C8.75398437 9.70449219 8.87515625 10.34257812 9 11 C7 9 7 9 6.1875 6.5625 C4.70897894 3.37200719 3.05178736 2.60620387 0 1 C0 0.67 0 0.34 0 0 Z " fill="#93C0F1" transform="translate(797,253)"/>
<path d="M0 0 C0.66 0.33 1.32 0.66 2 1 C-3.14285714 7.57142857 -3.14285714 7.57142857 -7 9 C-5.44499019 5.18315774 -2.96404505 2.80804268 0 0 Z " fill="#6EABED" transform="translate(809,122)"/>
<path d="M0 0 C0 0.66 0 1.32 0 2 C-6.4 5.07692308 -6.4 5.07692308 -9.4375 4.6875 C-9.953125 4.460625 -10.46875 4.23375 -11 4 C-7.34730776 1.66633552 -4.38405624 0 0 0 Z " fill="#94C1F1" transform="translate(760,207)"/>
</svg>
